<svg style="position:absolute;width:0;height:0" width="0" height="0"
    xmlns="http://www.w3.org/2000/svg"
    xmlns:xlink="http://www.w3.org/1999/xlink">
    <defs>
        <symbol xmlns="http://www.w3.org/2000/svg" id="admin_header_user_profile" viewBox="0 0 80 100">
            <g xmlns="http://www.w3.org/2000/svg"
                xmlns:inkscape="http://www.inkscape.org/namespaces/inkscape" inkscape:label="Layer 1" inkscape:groupmode="layer" id="layer1" transform="translate(0,-197)">
                <g id="g105" transform="translate(24.588797,-5.4790253)">
                    <path style="fill-opacity:1;stroke-width:0.76869059" d="m -15.510032,301.40408 c -9.650444,-3.56974 -11.211135,-13.07407 -5.0985,-31.04899 2.972018,-8.73957 9.364031,-17.31999 15.7458155,-21.13665 l 3.3603935,-2.0097 -1.8168348,-2.43542 c -5.737501,-7.69093 -7.3932652,-17.278 -4.3875774,-25.40468 5.2194469,-14.11214 20.8474572,-20.64081 34.0512202,-14.22503 14.4813,7.03657 18.721238,25.52235 8.919831,38.8897 -0.996873,1.35954 -1.812493,2.67509 -1.812493,2.92342 0,0.24829 1.112859,1.14057 2.473021,1.98281 1.360159,0.8422 4.301434,3.37052 6.536164,5.61843 7.557782,7.60239 13.614749,24.01563 12.92744,35.03098 -0.35724,5.72541 -2.231469,8.91604 -6.512821,11.08722 -2.633855,1.33568 -5.264605,1.46919 -32.164251,1.63237 -23.4790433,0.14234 -29.876669,-0.0369 -32.221408,-0.90446 z m 62.801555,-8.22981 c 2.194419,-2.2394 2.282374,-2.57101 1.776949,-6.69924 -1.373259,-11.21657 -5.261926,-20.73414 -11.002219,-26.92808 -3.610241,-3.89557 -10.669802,-8.27892 -13.333529,-8.27892 -0.663086,0 -1.620067,-0.92829 -2.126627,-2.06286 -0.853295,-1.91116 -0.729745,-2.21094 1.680368,-4.07679 6.508956,-5.03908 8.993666,-8.84681 9.690398,-14.85025 0.898899,-7.74543 -3.552496,-15.81051 -10.665936,-19.32467 -8.936809,-4.41494 -20.6685355,0.3483 -24.703265,10.02986 -1.487492,3.56934 -1.4009402,10.52074 0.1791144,14.38628 1.44289166,3.52998 5.139935,7.73648 8.269088,9.40856 1.6431475,0.87804 2.0840672,1.60946 1.9023252,3.15568 -0.1301077,1.10703 -0.7502042,2.27624 -1.3779732,2.59829 -0.627766,0.32205 -3.434691,1.68055 -6.237612,3.01887 -8.4252405,4.0228 -14.3128214,12.38383 -17.4030504,24.71426 -2.083895,8.31501 -1.963896,12.94895 0.39773,15.35903 l 1.867736,1.90601 H 15.59393 44.982829 Z M 3.7705644,287.18261 c -0.0063,-3.77288 -2.2907915,-7.24534 -5.4553523,-8.29286 -3.3941657,-1.12358 -4.930267,-4.32889 -3.6207218,-7.55525 2.4859309,-6.12462 10.6029471,-3.78575 10.6029471,3.05519 0,1.47914 0.814334,3.80924 1.902325,5.4432 1.3717095,2.06002 1.9023232,3.88963 1.9023232,6.55931 v 3.70237 H 6.4388314 c -2.569357,0 -2.663429,-0.10272 -2.668267,-2.91196 z m 2.815119,-1.53829 c -0.192919,-0.75557 -0.363466,-0.3254 -0.378973,0.95587 -0.01553,1.28127 0.142331,1.89946 0.35078,1.37372 0.208449,-0.52576 0.221132,-1.57405 0.02818,-2.32959 z m -3.5710343,-9.84287 c 0,-1.47879 -0.3137032,-1.7849 -1.5036778,-1.46734 -1.21098624,0.32319 -1.35388944,0.68692 -0.73415897,1.86863 1.07081817,2.04186 2.23783677,1.8326 2.23783677,-0.40129 z m -3.57383203,-3.38742 c -1.20185517,-0.89766 -1.43364257,-0.80373 -1.86705457,0.75665 -0.9923592,3.57268 -0.703231,4.04796 1.2963591,2.13093 1.83843003,-1.76254 1.86911933,-1.91783 0.57069547,-2.88758 z m 13.46591493,5.97713 c 0,-9.36249 -0.228092,-11.9362 -1.140252,-12.86707 -3.4377366,-3.50821 -1.312807,-9.01476 3.645515,-9.44698 5.153435,-0.44922 7.692577,5.0349 4.343101,9.38039 -1.363941,1.76952 -1.52186,3.1502 -1.52186,13.30573 v 11.33134 h -2.663253 -2.663251 z m 3.563519,5.34558 c -0.242904,-0.61947 -0.423217,-0.43545 -0.45973,0.46915 -0.03304,0.8186 0.146817,1.27725 0.399657,1.01921 0.252854,-0.25797 0.279887,-0.92781 0.06007,-1.48836 z m -0.244629,-4.12532 c 0.24089,-0.64064 0.106326,-1.16479 -0.299053,-1.16479 -0.405377,0 -0.737046,0.52415 -0.737046,1.16479 0,0.64062 0.134566,1.1648 0.299052,1.1648 0.164477,0 0.496151,-0.52418 0.737047,-1.1648 z m 0.485758,-6.98879 c 0,-1.49482 -0.282505,-2.71783 -0.627787,-2.71783 -0.345281,0 -0.602095,1.222 -0.570695,2.71555 0.07454,3.5465 1.198482,3.54864 1.198482,0.002 z m -0.795808,-7.44353 c -0.467145,-0.89078 -1.035119,-1.43002 -1.26217,-1.19831 -0.627205,0.64008 0.37746,2.81788 1.29994,2.81788 0.562752,0 0.551173,-0.49655 -0.03777,-1.61957 z m 1.331158,-2.6017 c -0.282246,-2.80761 -1.811176,-5.34396 -2.832922,-4.69955 -0.331801,0.20927 -0.422943,1.08423 -0.202553,1.94434 0.308113,1.20237 0.115733,1.45223 -0.832367,1.08097 -0.679199,-0.26591 -1.233099,-0.0969 -1.233099,0.37669 0,0.47278 0.81611,0.85964 1.813576,0.85964 1.17363,0 1.954006,0.54801 2.211551,1.55304 0.646022,2.52103 1.366279,1.77445 1.075799,-1.11513 z m 2.159191,-3.49238 c -0.275862,-0.45553 -0.837276,-0.82819 -1.247592,-0.82819 -0.410312,0 -0.304497,0.48889 0.235138,1.08646 1.092434,1.20969 1.793214,1.03092 1.012454,-0.25827 z m 2.631965,27.66721 c 0,-2.38443 0.658409,-4.40186 2.29726,-7.03903 1.263492,-2.03317 2.094166,-4.03202 1.845942,-4.4419 -0.997418,-1.64694 0.588426,-5.41427 2.76196,-6.56129 4.024272,-2.12371 8.313426,0.51521 8.313426,5.11486 0,2.22112 -2.805114,5.39828 -4.766128,5.39828 -2.040549,0 -5.125955,4.83506 -5.125955,8.03273 0,2.72655 -0.105226,2.83869 -2.663254,2.83869 -2.631213,0 -2.663251,-0.0402 -2.663251,-3.34234 z m 3.104667,-2.67577 c -0.632758,-1.10863 -0.775602,-0.85837 -0.775602,1.35896 0,2.21729 0.142849,2.46757 0.775602,1.35892 0.526848,-0.92308 0.526848,-1.79478 0,-2.71788 z m 1.841373,-3.30024 c 0.258662,-0.4271 0.107643,-0.77655 -0.335556,-0.77655 -0.44321,0 -0.805839,0.34945 -0.805839,0.77655 0,0.4271 0.150988,0.77653 0.335558,0.77653 0.18455,0 0.547185,-0.34943 0.805837,-0.77653 z m 4.508629,-3.9767 c -0.493132,-0.81426 -1.845376,-0.16053 -1.845376,0.89201 0,0.38851 0.51166,0.50599 1.137022,0.26122 0.625365,-0.24477 0.944121,-0.76382 0.708354,-1.15311 z m 3.182667,-3.27576 c 0.247304,-0.79515 0.09237,-1.81032 -0.344306,-2.25594 -0.551306,-0.56262 -0.6881,-0.24213 -0.447613,1.04882 0.190474,1.02251 0.14279,1.42227 -0.105979,0.88842 -0.24877,-0.53388 -0.937405,-0.97068 -1.530298,-0.97068 -0.592889,0 -1.077982,-0.34944 -1.077982,-0.77651 0,-0.42713 -0.499844,-0.77656 -1.110762,-0.77656 -0.748513,0 -1.058713,0.71303 -0.951161,2.18637 0.140634,1.92669 0.454079,2.18132 2.639034,2.14408 1.726583,-0.0293 2.615963,-0.48125 2.929073,-1.488 z" id="path113" inkscape:connector-curvature="0"/>
                </g>
            </g>
        </symbol>

        <symbol xmlns="http://www.w3.org/2000/svg" id="admin_header_user_logout" viewBox="0 0 100 100">
            <g xmlns="http://www.w3.org/2000/svg"
                xmlns:inkscape="http://www.inkscape.org/namespaces/inkscape" inkscape:label="Layer 1" inkscape:groupmode="layer" id="layer1" transform="translate(0,-197)">
                <path style="stroke-width:0.25596705" d="m 2.338608,296.74328 c -1.56932696,-0.86305 -1.46513796,2.66338 -1.46513796,-49.58943 0,-42.1318 0.04502,-47.78739 0.38567996,-48.45509 0.832354,-1.63139 -1.17094496,-1.53773 32.889034,-1.53773 h 31.011712 l 0.774821,0.6608 c 0.426152,0.36344 0.891942,1.08821 1.035093,1.61059 0.347447,1.26792 0.354667,31.52878 0.0078,32.79426 -0.51604,1.88281 -2.588265,2.82187 -4.275549,1.93752 -1.607684,-0.84263 -1.571194,-0.46232 -1.571194,-16.37478 v -14.44371 l -16.716987,-0.0291 c -19.727507,-0.0344 -37.277072,0.04 -37.395538,0.15856 -0.102251,0.10228 -0.0902,87.27077 0.01207,87.36187 0.135926,0.12108 21.423345,0.21763 37.764842,0.17129 l 16.335611,-0.0463 v -14.44371 c 0,-15.91245 -0.03649,-15.53215 1.571186,-16.37478 1.687284,-0.88435 3.759509,0.0547 4.275549,1.93752 0.346844,1.26548 0.339624,31.52634 -0.0078,32.79426 -0.143151,0.52238 -0.608941,1.24715 -1.035093,1.61059 l -0.774814,0.6608 -31.062649,-0.0103 c -26.979551,-0.009 -31.154132,-0.0606 -31.758639,-0.39308 z m 75.119458,-29.37602 c -1.154034,-0.81927 -1.644329,-2.6028 -1.045251,-3.8023 0.154618,-0.30958 3.099889,-3.43295 6.54505,-6.94082 l 6.263928,-6.37795 H 61.611529 34.001268 l -0.863916,-0.58821 c -1.229824,-0.83736 -1.702934,-2.29625 -1.16541,-3.59369 0.223716,-0.53998 0.766594,-1.18847 1.239636,-1.48078 0.830459,-0.51318 1.207253,-0.52008 28.425915,-0.52104 l 27.5843,-9.6e-4 -6.263928,-6.37795 c -3.445161,-3.50787 -6.390432,-6.63124 -6.54505,-6.94082 -0.599078,-1.19949 -0.108783,-2.98303 1.045251,-3.8023 0.708818,-0.5032 2.29508,-0.51933 3.199204,-0.0325 0.827708,0.44566 18.184741,18.07495 18.584573,18.87609 0.359994,0.72131 0.359994,2.01837 0,2.73968 -0.399832,0.80114 -17.756865,18.43043 -18.584573,18.87609 -0.904124,0.48681 -2.490386,0.47068 -3.199204,-0.0325 z" id="path21" inkscape:connector-curvature="0"/>
            </g>
        </symbol>

        <symbol xmlns="http://www.w3.org/2000/svg" id="admin_header_user_settings" viewBox="0 0 24 24">
            <g xmlns="http://www.w3.org/2000/svg">
                <path d="m13.12 24h-2.24c-.757 0-1.396-.567-1.486-1.32l-.239-1.876c-.477-.155-.937-.346-1.374-.569l-1.494 1.161c-.606.469-1.459.415-1.985-.126l-1.575-1.575c-.537-.521-.591-1.374-.122-1.979l1.161-1.495c-.224-.437-.415-.897-.569-1.374l-1.88-.239c-.75-.092-1.317-.731-1.317-1.488v-2.24c0-.757.567-1.396 1.32-1.486l1.876-.239c.155-.477.346-.937.569-1.374l-1.16-1.494c-.47-.606-.415-1.46.127-1.986l1.575-1.575c.521-.537 1.375-.59 1.979-.122l1.494 1.162c.437-.223.897-.414 1.375-.569l.239-1.88c.09-.75.729-1.317 1.486-1.317h2.24c.757 0 1.396.567 1.486 1.32l.239 1.876c.478.155.938.346 1.375.569l1.494-1.161c.607-.469 1.459-.415 1.985.127l1.575 1.575c.537.521.591 1.374.122 1.979l-1.161 1.495c.224.437.415.897.569 1.374l1.88.239c.749.091 1.316.73 1.316 1.487v2.24c0 .757-.567 1.396-1.32 1.486l-1.876.239c-.155.477-.346.937-.569 1.374l1.161 1.494c.47.606.415 1.459-.127 1.985l-1.575 1.575c-.521.537-1.375.592-1.979.122l-1.495-1.161c-.437.224-.897.415-1.374.569l-.239 1.88c-.091.75-.73 1.317-1.487 1.317zm-5.39-4.86c.083 0 .168.021.244.063.551.308 1.148.556 1.774.736.192.055.333.219.358.417l.28 2.2c.03.251.247.444.494.444h2.24c.247 0 .464-.193.493-.439l.281-2.204c.025-.198.166-.362.358-.417.626-.18 1.223-.428 1.774-.736.175-.098.393-.081.55.042l1.75 1.36c.201.156.483.143.655-.034l1.585-1.585c.181-.176.195-.458.039-.66l-1.36-1.75c-.123-.158-.14-.375-.042-.55.308-.551.556-1.148.736-1.774.055-.192.219-.333.417-.358l2.2-.28c.251-.031.444-.248.444-.495v-2.24c0-.247-.193-.464-.439-.493l-2.204-.281c-.198-.025-.362-.166-.417-.358-.18-.626-.428-1.223-.736-1.774-.098-.175-.082-.392.042-.55l1.36-1.75c.157-.202.143-.484-.033-.654l-1.585-1.585c-.175-.182-.458-.196-.66-.039l-1.75 1.36c-.159.123-.376.14-.551.042-.549-.308-1.146-.555-1.774-.736-.192-.055-.333-.219-.358-.417l-.28-2.2c-.031-.252-.248-.445-.495-.445h-2.24c-.247 0-.464.193-.493.439l-.281 2.204c-.025.198-.166.362-.358.418-.628.18-1.225.428-1.774.735-.175.099-.392.081-.551-.041l-1.75-1.36c-.202-.157-.483-.143-.654.033l-1.585 1.586c-.181.176-.195.458-.039.66l1.36 1.75c.123.158.14.375.042.55-.309.551-.556 1.148-.736 1.774-.055.192-.219.333-.417.358l-2.2.28c-.251.03-.444.247-.444.494v2.24c0 .247.193.464.439.493l2.204.281c.198.025.362.166.417.358.18.626.428 1.223.736 1.774.098.175.082.392-.042.55l-1.36 1.75c-.157.202-.143.484.033.654l1.585 1.585c.175.181.456.195.66.039l1.75-1.36c.091-.068.199-.104.308-.104z"/>
            </g>
            <g xmlns="http://www.w3.org/2000/svg">
                <path d="m12 17c-2.757 0-5-2.243-5-5s2.243-5 5-5 5 2.243 5 5-2.243 5-5 5zm0-9c-2.206 0-4 1.794-4 4s1.794 4 4 4 4-1.794 4-4-1.794-4-4-4z"/>
            </g>
        </symbol>

        <symbol xmlns="http://www.w3.org/2000/svg" id="admin_header_message" viewBox="0 0 512 512">
            <path d="M469.333,64H42.667C19.135,64,0,83.135,0,106.667v298.667C0,428.865,19.135,448,42.667,448h426.667    C492.865,448,512,428.865,512,405.333V106.667C512,83.135,492.865,64,469.333,64z M42.667,85.333h426.667    c1.572,0,2.957,0.573,4.432,0.897c-36.939,33.807-159.423,145.859-202.286,184.478c-3.354,3.021-8.76,6.625-15.479,6.625    s-12.125-3.604-15.49-6.635C197.652,232.085,75.161,120.027,38.228,86.232C39.706,85.908,41.094,85.333,42.667,85.333z     M21.333,405.333V106.667c0-2.09,0.63-3.986,1.194-5.896c28.272,25.876,113.736,104.06,169.152,154.453    C136.443,302.671,50.957,383.719,22.46,410.893C21.957,409.079,21.333,407.305,21.333,405.333z M469.333,426.667H42.667    c-1.704,0-3.219-0.594-4.81-0.974c29.447-28.072,115.477-109.586,169.742-156.009c7.074,6.417,13.536,12.268,18.63,16.858    c8.792,7.938,19.083,12.125,29.771,12.125s20.979-4.188,29.76-12.115c5.096-4.592,11.563-10.448,18.641-16.868    c54.268,46.418,140.286,127.926,169.742,156.009C472.552,426.073,471.039,426.667,469.333,426.667z M490.667,405.333    c0,1.971-0.624,3.746-1.126,5.56c-28.508-27.188-113.984-108.227-169.219-155.668c55.418-50.393,140.869-128.57,169.151-154.456    c0.564,1.91,1.194,3.807,1.194,5.897V405.333z"/>
        </symbol>

        <symbol xmlns="http://www.w3.org/2000/svg" id="admin_header_alert" viewBox="0 0 24 24">
            <g>
                <path d="m13.5 4.18c-.276 0-.5-.224-.5-.5v-1.68c0-.551-.449-1-1-1s-1 .449-1 1v1.68c0 .276-.224.5-.5.5s-.5-.223-.5-.5v-1.68c0-1.103.897-2 2-2s2 .897 2 2v1.68c0 .277-.224.5-.5.5z"/>
            </g>
            <g>
                <path d="m12 24c-1.93 0-3.5-1.57-3.5-3.5 0-.276.224-.5.5-.5s.5.224.5.5c0 1.378 1.122 2.5 2.5 2.5s2.5-1.122 2.5-2.5c0-.276.224-.5.5-.5s.5.224.5.5c0 1.93-1.57 3.5-3.5 3.5z"/>
            </g>
            <g>
                <path d="m20.5 21h-17c-.827 0-1.5-.673-1.5-1.5 0-.439.191-.854.525-1.14 1.576-1.332 2.475-3.27 2.475-5.322v-3.038c0-3.86 3.14-7 7-7 3.86 0 7 3.14 7 7v3.038c0 2.053.899 3.99 2.467 5.315.342.293.533.708.533 1.147 0 .827-.672 1.5-1.5 1.5zm-8.5-17c-3.309 0-6 2.691-6 6v3.038c0 2.348-1.028 4.563-2.821 6.079-.115.098-.179.237-.179.383 0 .276.224.5.5.5h17c.276 0 .5-.224.5-.5 0-.146-.064-.285-.175-.38-1.796-1.519-2.825-3.735-2.825-6.082v-3.038c0-3.309-2.691-6-6-6z"/>
            </g>
        </symbol>

        <symbol xmlns="http://www.w3.org/2000/svg" id="admin_sidebar_system" viewBox="0 0 350 350">
            <g xmlns="http://www.w3.org/2000/svg" id="icon" style="stroke: none; stroke-width: 1; stroke-dasharray: none; stroke-linecap: butt; stroke-linejoin: miter; stroke-miterlimit: 10; fill-rule: nonzero; opacity: 1;" transform="translate(-1.9444444444444287 -1.9444444444444287) scale(3.89 3.89)">
                <path d="M 48.391 75.222 h -6.773 c -3.544 0 -6.428 -2.884 -6.428 -6.427 c 0 -0.913 -0.506 -1.739 -1.32 -2.157 c -0.696 -0.358 -1.384 -0.755 -2.043 -1.178 c -0.768 -0.494 -1.733 -0.519 -2.521 -0.063 c -1.487 0.859 -3.22 1.087 -4.878 0.642 c -1.659 -0.444 -3.045 -1.508 -3.903 -2.995 l -3.386 -5.865 c -0.859 -1.487 -1.087 -3.219 -0.642 -4.878 c 0.444 -1.659 1.508 -3.045 2.995 -3.903 c 0.788 -0.455 1.25 -1.303 1.207 -2.214 c -0.038 -0.781 -0.038 -1.576 0 -2.361 c 0.044 -0.909 -0.412 -1.756 -1.193 -2.212 c -0.005 -0.003 -0.01 -0.006 -0.015 -0.009 c -1.487 -0.859 -2.551 -2.245 -2.995 -3.903 c -0.445 -1.659 -0.216 -3.391 0.642 -4.878 l 3.386 -5.865 c 1.773 -3.069 5.711 -4.123 8.78 -2.353 l 0 0 c 0.789 0.456 1.782 0.416 2.59 -0.102 c 0.307 -0.197 0.622 -0.389 0.942 -0.574 c 0.323 -0.186 0.645 -0.363 0.97 -0.531 c 0.853 -0.441 1.383 -1.281 1.383 -2.192 c 0 -3.544 2.884 -6.428 6.428 -6.428 h 6.773 c 3.544 0 6.428 2.884 6.428 6.428 c 0 0.913 0.506 1.738 1.32 2.156 c 0.697 0.358 1.384 0.755 2.044 1.18 c 0.766 0.494 1.733 0.516 2.521 0.062 c 3.069 -1.771 7.009 -0.717 8.78 2.352 l 3.387 5.866 c 1.772 3.068 0.717 7.007 -2.353 8.78 c -0.01 0.006 -0.021 0.012 -0.03 0.018 c -0.771 0.459 -1.221 1.297 -1.177 2.196 c 0.038 0.785 0.038 1.579 0 2.361 c -0.045 0.914 0.417 1.764 1.205 2.219 c 0.019 0.011 0.037 0.021 0.055 0.033 c 1.459 0.86 2.504 2.233 2.942 3.872 c 0.445 1.659 0.217 3.391 -0.641 4.878 l -3.386 5.865 c -1.774 3.069 -5.713 4.125 -8.781 2.354 c -0.789 -0.456 -1.779 -0.417 -2.59 0.102 c -0.307 0.197 -0.621 0.389 -0.939 0.573 c -0.323 0.186 -0.647 0.362 -0.972 0.53 c -0.854 0.442 -1.384 1.283 -1.384 2.192 C 54.819 72.338 51.936 75.222 48.391 75.222 z M 30.516 61.069 c 1.208 0 2.414 0.344 3.475 1.027 c 0.551 0.354 1.127 0.686 1.709 0.986 c 2.152 1.106 3.49 3.295 3.49 5.71 c 0 1.342 1.09 2.432 2.429 2.432 h 6.773 c 1.339 0 2.43 -1.09 2.43 -2.43 c 0 -2.41 1.358 -4.611 3.544 -5.743 c 0.269 -0.14 0.539 -0.286 0.806 -0.44 c 0.266 -0.154 0.529 -0.314 0.787 -0.479 c 2.07 -1.329 4.656 -1.405 6.745 -0.197 c 1.159 0.668 2.648 0.27 3.318 -0.89 l 3.386 -5.865 c 0.325 -0.562 0.411 -1.216 0.243 -1.844 c -0.168 -0.627 -0.57 -1.15 -1.131 -1.474 c -0.018 -0.011 -0.035 -0.021 -0.054 -0.032 c -2.061 -1.214 -3.266 -3.449 -3.149 -5.847 c 0.032 -0.653 0.032 -1.316 0 -1.972 c -0.116 -2.413 1.11 -4.662 3.201 -5.87 c 0.01 -0.006 0.021 -0.012 0.031 -0.018 c 1.137 -0.678 1.524 -2.151 0.86 -3.301 l -3.387 -5.866 c -0.669 -1.159 -2.157 -1.558 -3.318 -0.889 c -2.094 1.208 -4.654 1.145 -6.685 -0.162 c -0.552 -0.355 -1.127 -0.687 -1.708 -0.986 c -2.152 -1.106 -3.49 -3.294 -3.49 -5.71 c 0 -1.342 -1.09 -2.432 -2.43 -2.432 h -6.773 c -1.339 0 -2.429 1.09 -2.429 2.429 c 0 2.412 -1.358 4.613 -3.545 5.743 c -0.271 0.14 -0.54 0.287 -0.808 0.442 c -0.265 0.153 -0.527 0.312 -0.784 0.477 c -2.074 1.328 -4.659 1.403 -6.746 0.198 l 0 0 c -1.16 -0.67 -2.649 -0.271 -3.319 0.89 l -3.386 5.865 c -0.325 0.562 -0.41 1.216 -0.243 1.843 c 0.166 0.622 0.563 1.143 1.118 1.468 c 0.005 0.003 0.011 0.006 0.016 0.009 c 2.091 1.208 3.317 3.46 3.199 5.878 c -0.032 0.656 -0.032 1.32 0 1.972 c 0.117 2.414 -1.109 4.663 -3.2 5.87 c -0.563 0.324 -0.965 0.848 -1.133 1.475 c -0.168 0.627 -0.082 1.282 0.243 1.844 l 3.386 5.865 c 0.325 0.562 0.849 0.964 1.475 1.132 c 0.627 0.168 1.281 0.082 1.843 -0.242 C 28.305 61.356 29.411 61.069 30.516 61.069 z M 45.029 59.538 c -5.03 0 -9.927 -2.608 -12.617 -7.268 l 0 0 c -4.009 -6.944 -1.621 -15.855 5.322 -19.863 c 3.363 -1.942 7.284 -2.458 11.034 -1.453 c 3.752 1.005 6.888 3.411 8.829 6.775 s 2.458 7.282 1.453 11.034 c -1.005 3.752 -3.411 6.888 -6.775 8.829 C 49.991 58.911 47.494 59.538 45.029 59.538 z M 35.875 50.271 c 1.408 2.438 3.682 4.183 6.402 4.912 c 2.72 0.729 5.561 0.353 8 -1.054 s 4.183 -3.68 4.912 -6.401 c 0.728 -2.72 0.354 -5.561 -1.054 -8 c -1.408 -2.438 -3.68 -4.183 -6.401 -4.912 c -2.717 -0.728 -5.56 -0.354 -8 1.053 C 34.699 38.776 32.969 45.237 35.875 50.271 L 35.875 50.271 z" style="stroke: none; stroke-width: 1; stroke-dasharray: none; stroke-linecap: butt; stroke-linejoin: miter; stroke-miterlimit: 10; fill-rule: nonzero; opacity: 1;" transform=" matrix(1 0 0 1 0 0) " stroke-linecap="round"/>
                <path d="M 8.899 70.322 c -0.657 0 -1.3 -0.323 -1.682 -0.916 c -9.188 -14.252 -9.633 -32.221 -1.161 -46.894 C 12.062 12.108 21.761 4.667 33.364 1.557 C 44.969 -1.552 57.09 0.044 67.492 6.05 c 0.957 0.552 1.284 1.775 0.732 2.731 c -0.553 0.955 -1.773 1.285 -2.731 0.732 c -9.48 -5.472 -20.522 -6.925 -31.094 -4.094 C 23.827 8.252 14.991 15.033 9.518 24.511 c -7.719 13.37 -7.313 29.742 1.06 42.728 c 0.598 0.928 0.331 2.165 -0.597 2.764 C 9.645 70.219 9.27 70.322 8.899 70.322 z" style="stroke: none; stroke-width: 1; stroke-dasharray: none; stroke-linecap: butt; stroke-linejoin: miter; stroke-miterlimit: 10; fill-rule: nonzero; opacity: 1;" transform=" matrix(1 0 0 1 0 0) " stroke-linecap="round"/>
                <path d="M 44.932 89.995 c -7.794 0 -15.485 -2.044 -22.415 -6.045 c -0.956 -0.553 -1.284 -1.776 -0.732 -2.731 c 0.552 -0.957 1.775 -1.284 2.731 -0.732 c 9.479 5.473 20.522 6.928 31.094 4.094 c 10.572 -2.833 19.408 -9.613 24.881 -19.092 c 6.981 -12.09 7.348 -26.738 0.983 -39.185 c -0.503 -0.983 -0.114 -2.188 0.869 -2.69 c 0.986 -0.503 2.189 -0.112 2.69 0.87 c 6.986 13.659 6.582 29.735 -1.079 43.004 c -6.007 10.404 -15.706 17.846 -27.309 20.956 C 52.771 89.48 48.838 89.995 44.932 89.995 z" style="stroke: none; stroke-width: 1; stroke-dasharray: none; stroke-linecap: butt; stroke-linejoin: miter; stroke-miterlimit: 10; fill-rule: nonzero; opacity: 1;" transform=" matrix(1 0 0 1 0 0) " stroke-linecap="round"/>
                <path d="M 70.944 17.511 c -1.212 0 -2.44 -0.308 -3.564 -0.957 c -3.416 -1.972 -4.591 -6.356 -2.619 -9.772 c 0.956 -1.655 2.498 -2.838 4.344 -3.333 c 1.848 -0.493 3.774 -0.241 5.429 0.715 c 3.416 1.972 4.591 6.356 2.619 9.772 C 75.828 16.227 73.417 17.511 70.944 17.511 z M 70.961 7.202 c -0.274 0 -0.55 0.036 -0.822 0.109 c -0.814 0.218 -1.495 0.74 -1.915 1.47 c -0.87 1.506 -0.351 3.44 1.155 4.31 c 1.508 0.869 3.439 0.351 4.311 -1.155 c 0.869 -1.506 0.35 -3.439 -1.156 -4.309 C 72.048 7.346 71.508 7.202 70.961 7.202 z" style="stroke: none; stroke-width: 1; stroke-dasharray: none; stroke-linecap: butt; stroke-linejoin: miter; stroke-miterlimit: 10; fill-rule: nonzero; opacity: 1;" transform=" matrix(1 0 0 1 0 0) " stroke-linecap="round"/>
                <path d="M 70.944 17.511 c -1.212 0 -2.44 -0.308 -3.564 -0.957 c -3.416 -1.972 -4.591 -6.356 -2.619 -9.772 c 0.956 -1.655 2.498 -2.838 4.344 -3.333 c 1.848 -0.493 3.774 -0.241 5.429 0.715 c 3.416 1.972 4.591 6.356 2.619 9.772 C 75.828 16.227 73.417 17.511 70.944 17.511 z M 70.961 7.202 c -0.274 0 -0.55 0.036 -0.822 0.109 c -0.814 0.218 -1.495 0.74 -1.915 1.47 c -0.87 1.506 -0.351 3.44 1.155 4.31 c 1.508 0.869 3.439 0.351 4.311 -1.155 c 0.869 -1.506 0.35 -3.439 -1.156 -4.309 C 72.048 7.346 71.508 7.202 70.961 7.202 z" style="stroke: none; stroke-width: 1; stroke-dasharray: none; stroke-linecap: butt; stroke-linejoin: miter; stroke-miterlimit: 10; fill-rule: nonzero; opacity: 1;" transform=" matrix(1 0 0 1 0 0) " stroke-linecap="round"/>
                <path d="M 19.041 86.798 c -1.239 0 -2.462 -0.325 -3.565 -0.962 c -3.416 -1.972 -4.59 -6.356 -2.618 -9.772 l 0 0 c 1.972 -3.417 6.357 -4.588 9.772 -2.618 c 1.655 0.956 2.838 2.498 3.333 4.344 c 0.494 1.845 0.241 3.773 -0.715 5.428 c -0.955 1.655 -2.498 2.839 -4.343 3.334 C 20.289 86.716 19.663 86.798 19.041 86.798 z M 16.321 78.063 c -0.87 1.507 -0.352 3.44 1.155 4.31 c 0.73 0.422 1.579 0.535 2.394 0.315 c 0.814 -0.218 1.494 -0.74 1.916 -1.47 c 0.421 -0.73 0.533 -1.579 0.315 -2.394 c -0.218 -0.814 -0.74 -1.495 -1.47 -1.915 C 19.125 76.04 17.192 76.557 16.321 78.063 L 16.321 78.063 z" style="stroke: none; stroke-width: 1; stroke-dasharray: none; stroke-linecap: butt; stroke-linejoin: miter; stroke-miterlimit: 10; fill-rule: nonzero; opacity: 1;" transform=" matrix(1 0 0 1 0 0) " stroke-linecap="round"/>
            </g>
        </symbol>
        <symbol xmlns="http://www.w3.org/2000/svg" id="admin_sidebar_stores" viewBox="0 0 350 350">
            <g xmlns="http://www.w3.org/2000/svg" id="icon" style="stroke: none; stroke-width: 1; stroke-dasharray: none; stroke-linecap: butt; stroke-linejoin: miter; stroke-miterlimit: 10; fill-rule: nonzero; opacity: 1;" transform="translate(-1.9444444444444287 -1.9444444444444287) scale(3.89 3.89)">
                <path d="M 87.691 13.801 c -0.005 -0.115 -0.024 -0.228 -0.068 -0.336 c -0.002 -0.004 -0.002 -0.008 -0.003 -0.012 c -0.037 -0.087 -0.086 -0.169 -0.148 -0.244 L 76.916 0.365 C 76.727 0.134 76.442 0 76.144 0 H 65.178 H 53.34 H 36.66 h -0.266 H 24.822 H 13.857 c -0.299 0 -0.583 0.134 -0.772 0.365 L 2.527 13.21 c -0.062 0.075 -0.111 0.157 -0.148 0.244 c -0.002 0.004 -0.002 0.009 -0.004 0.014 c -0.043 0.107 -0.062 0.219 -0.067 0.333 C 2.308 13.816 2.3 13.829 2.3 13.845 v 2.645 v 51.062 c 0 3.235 2.632 5.868 5.867 5.868 h 25.315 v 7.199 h -6.144 c -2.004 0 -3.635 1.631 -3.635 3.635 V 89 c 0 0.553 0.448 1 1 1 h 40.594 c 0.553 0 1 -0.447 1 -1 v -4.746 c 0 -2.004 -1.631 -3.635 -3.635 -3.635 h -6.145 V 73.42 h 25.315 c 3.235 0 5.867 -2.633 5.867 -5.868 V 16.49 v -2.645 C 87.7 13.829 87.692 13.817 87.691 13.801 z M 69.021 16.49 c 0 4.047 -3.293 7.34 -7.341 7.34 c -4.047 0 -7.34 -3.293 -7.34 -7.34 v -1.645 h 14.681 V 16.49 z M 18.98 16.49 c 0 4.047 -3.293 7.34 -7.34 7.34 S 4.3 20.537 4.3 16.49 v -1.645 h 14.68 V 16.49 z M 35.395 12.845 H 21.426 L 25.514 2 h 9.881 V 12.845 z M 20.98 14.845 h 14.68 v 1.645 c 0 4.047 -3.293 7.34 -7.34 7.34 s -7.34 -3.293 -7.34 -7.34 V 14.845 z M 37.66 14.845 h 14.68 v 1.645 c 0 4.047 -3.293 7.34 -7.34 7.34 c -4.047 0 -7.34 -3.293 -7.34 -7.34 V 14.845 z M 54.34 2 h 10.146 l 4.089 10.845 H 54.34 V 2 z M 71.021 14.845 H 85.7 v 1.645 c 0 4.047 -3.293 7.34 -7.34 7.34 s -7.34 -3.293 -7.34 -7.34 V 14.845 z M 84.584 12.845 H 70.712 L 66.623 2 h 9.047 L 84.584 12.845 z M 52.34 12.845 H 37.66 V 2 h 14.68 V 12.845 z M 14.33 2 h 9.046 l -4.088 10.845 H 5.416 L 14.33 2 z M 64.297 84.254 V 88 H 25.703 v -3.746 c 0 -0.901 0.733 -1.635 1.635 -1.635 h 7.144 h 21.035 h 7.145 C 63.563 82.619 64.297 83.353 64.297 84.254 z M 54.518 80.619 H 35.482 V 73.42 h 19.035 V 80.619 z M 81.833 71.42 H 55.518 H 34.482 H 8.167 c -2.132 0 -3.867 -1.735 -3.867 -3.868 v -7.236 h 81.4 v 7.236 C 85.7 69.685 83.966 71.42 81.833 71.42 z M 85.7 58.315 H 4.3 V 22.247 c 1.711 2.177 4.362 3.583 7.34 3.583 c 3.646 0 6.803 -2.105 8.34 -5.159 c 1.538 3.054 4.694 5.159 8.34 5.159 c 3.646 0 6.803 -2.105 8.34 -5.159 c 1.538 3.054 4.694 5.159 8.34 5.159 c 3.646 0 6.802 -2.105 8.34 -5.159 c 1.537 3.054 4.694 5.159 8.34 5.159 c 3.646 0 6.803 -2.105 8.341 -5.159 c 1.537 3.054 4.694 5.159 8.34 5.159 c 2.978 0 5.628 -1.406 7.34 -3.583 V 58.315 z" style="stroke: none; stroke-width: 1; stroke-dasharray: none; stroke-linecap: butt; stroke-linejoin: miter; stroke-miterlimit: 10; fill-rule: nonzero; opacity: 1;" transform=" matrix(1 0 0 1 0 0) " stroke-linecap="round"/>
                <path d="M 49.104 66.471 h -8.207 c -0.552 0 -1 -0.447 -1 -1 s 0.448 -1 1 -1 h 8.207 c 0.553 0 1 0.447 1 1 S 49.656 66.471 49.104 66.471 z" style="stroke: none; stroke-width: 1; stroke-dasharray: none; stroke-linecap: butt; stroke-linejoin: miter; stroke-miterlimit: 10; fill-rule: nonzero; opacity: 1;" transform=" matrix(1 0 0 1 0 0) " stroke-linecap="round"/>
            </g>
        </symbol>
        <symbol xmlns="http://www.w3.org/2000/svg" id="admin_sidebar_content" viewBox="0 0 350 350">
            <g xmlns="http://www.w3.org/2000/svg" id="icon" style="stroke: none; stroke-width: 1; stroke-dasharray: none; stroke-linecap: butt; stroke-linejoin: miter; stroke-miterlimit: 10; fill-rule: nonzero; opacity: 1;" transform="translate(-1.9444444444444287 -1.9444444444444287) scale(3.89 3.89)">
                <path d="M 16.416 37.378 H 5.098 C 2.283 37.378 0 39.66 0 42.476 V 74.08 c 0 2.816 2.283 5.098 5.098 5.098 h 11.318 c 2.816 0 5.098 -2.283 5.098 -5.098 V 42.476 C 21.515 39.66 19.232 37.378 16.416 37.378 z M 13.664 39.788 c 0.247 0 0.448 0.201 0.448 0.448 s -0.201 0.448 -0.448 0.448 s -0.448 -0.201 -0.448 -0.448 S 13.417 39.788 13.664 39.788 z M 7.69 39.736 h 4.396 c 0.276 0 0.5 0.224 0.5 0.5 s -0.224 0.5 -0.5 0.5 H 7.69 c -0.276 0 -0.5 -0.224 -0.5 -0.5 S 7.414 39.736 7.69 39.736 z M 18.515 74.08 c 0 1.157 -0.941 2.098 -2.098 2.098 H 5.098 C 3.941 76.178 3 75.237 3 74.08 V 42.476 c 0 -1.131 0.901 -2.049 2.021 -2.091 c 0.319 0.768 0.957 1.302 1.696 1.302 h 8.08 c 0.74 0 1.377 -0.534 1.696 -1.302 c 1.121 0.042 2.021 0.96 2.021 2.091 V 74.08 z" style="stroke: none; stroke-width: 1; stroke-dasharray: none; stroke-linecap: butt; stroke-linejoin: miter; stroke-miterlimit: 10; fill-rule: nonzero; opacity: 1;" transform=" matrix(1 0 0 1 0 0) " stroke-linecap="round"/>
                <path d="M 87.238 10.822 H 2.762 C 1.237 10.822 0 12.058 0 13.583 v 21.362 c 0.898 -0.61 1.913 -1.055 3 -1.313 v -19.81 h 84 v 43.293 H 25.515 v 11.975 h 8.942 c -0.614 2.901 -1.848 5.803 -3.703 8.704 c -0.383 0.599 0.049 1.385 0.76 1.385 h 5.097 h 2.903 h 5.097 h 0.779 h 5.097 h 2.903 h 5.097 c 0.711 0 1.144 -0.786 0.76 -1.385 c -1.856 -2.901 -3.089 -5.803 -3.703 -8.704 h 31.695 c 1.525 0 2.762 -1.237 2.762 -2.762 V 13.583 C 90 12.058 88.763 10.822 87.238 10.822 z" style="stroke: none; stroke-width: 1; stroke-dasharray: none; stroke-linecap: butt; stroke-linejoin: miter; stroke-miterlimit: 10; fill-rule: evenodd; opacity: 1;" transform=" matrix(1 0 0 1 0 0) " stroke-linecap="round"/>
            </g>
        </symbol>
        <symbol xmlns="http://www.w3.org/2000/svg" id="admin_sidebar_customers" viewBox="0 0 60 60">
            <g xmlns="http://www.w3.org/2000/svg"
                xmlns:inkscape="http://www.inkscape.org/namespaces/inkscape" inkscape:label="Layer 1" inkscape:groupmode="layer" id="layer1" transform="translate(0,-237)">
                <path style="stroke-width:0.12063725" d="m 3.8776584,290.08452 c -1.1563348,-0.41487 -2.0233559,-1.32035 -2.3550524,-2.45949 -0.2596915,-0.89186 -0.172544,-7.01312 0.1170772,-8.22352 0.6243723,-2.60939 1.8829479,-4.81277 3.8010956,-6.65454 1.714262,-1.646 3.5915563,-2.72592 5.7710522,-3.31983 l 1.191874,-0.32477 7.727054,-0.0413 c 5.328462,-0.0285 8.026878,0.001 8.692936,0.0956 1.283126,0.18175 3.35472,0.87555 4.352496,1.45767 0.443043,0.25848 0.858273,0.46996 0.922742,0.46996 0.06447,0 0.427889,-0.18179 0.807599,-0.40397 0.37971,-0.22218 1.040821,-0.54237 1.469138,-0.71155 1.561227,-0.61663 1.77637,-0.63254 8.505811,-0.62901 6.106673,0.003 6.304625,0.0106 7.244115,0.27051 3.202272,0.88592 5.658485,3.06221 6.766686,5.99551 0.544319,1.44076 0.658528,2.36856 0.658528,5.34967 0,2.6886 -0.0055,2.74922 -0.305837,3.35087 -0.342059,0.68531 -0.988968,1.20452 -1.708552,1.37126 -0.253377,0.0587 -4.269545,0.10805 -8.92482,0.10964 l -8.464142,0.003 -0.07126,0.84865 c -0.12715,1.5142 -0.860154,2.65647 -2.093734,3.26275 l -0.586564,0.28828 -16.540727,0.0257 c -13.319101,0.0207 -16.6257982,-0.005 -16.9775116,-0.13099 z m 33.2319056,-2.31353 c 0.666658,-0.34418 0.719222,-0.67293 0.639379,-3.9986 -0.08167,-3.40149 -0.242548,-4.35548 -1.013937,-6.01248 -1.397373,-3.00166 -3.745045,-5.03597 -6.969988,-6.03963 l -1.062058,-0.33053 -7.485584,-0.0417 c -8.049347,-0.0448 -8.351741,-0.0277 -10.16444,0.57642 -1.6264349,0.54202 -2.7241428,1.23949 -4.0844401,2.59519 -1.7706177,1.76465 -2.6754995,3.45511 -3.1300598,5.84747 -0.2658888,1.39938 -0.269799,6.36193 -0.00542,6.87237 0.3918475,0.75652 -0.7010499,0.71018 16.8772259,0.71548 14.324267,0.004 16.072588,-0.0153 16.399319,-0.18399 z m 20.086911,-7.10381 c 0,-2.56127 -0.02136,-2.84126 -0.280515,-3.67645 -0.389671,-1.25585 -1.060465,-2.33278 -2.031806,-3.262 -0.973613,-0.93138 -1.816956,-1.43294 -3.060397,-1.82008 -0.898457,-0.27973 -0.95255,-0.28192 -6.942276,-0.28192 -4.686747,0 -6.185264,0.0367 -6.700807,0.16407 -0.883438,0.21829 -2.052499,0.73819 -2.052499,0.91278 0,0.0769 0.219902,0.35426 0.488666,0.61627 2.054402,2.00282 3.495595,5.78142 3.495595,9.16495 v 1.01667 l 8.542022,-0.0309 8.542017,-0.0309 z M 43.542354,267.59026 c -2.926645,-0.41126 -5.428563,-2.19118 -6.815763,-4.84889 -0.683579,-1.30965 -0.974754,-2.52071 -0.980266,-4.07713 -0.0054,-1.51435 0.222447,-2.5512 0.859756,-3.91303 1.11598,-2.38468 2.960329,-3.9877 5.558855,-4.8315 0.914365,-0.29691 1.203951,-0.33324 2.656174,-0.33324 1.444155,0 1.740015,0.0367 2.595811,0.32162 1.569106,0.52248 2.649727,1.19296 3.822949,2.37198 0.901542,0.906 1.129543,1.22422 1.650535,2.3036 0.959427,1.98773 1.20731,3.75205 0.814873,5.7998 -0.625075,3.26167 -3.222446,6.05767 -6.459218,6.95317 -1.042485,0.28842 -2.665259,0.39954 -3.703706,0.25362 z m 2.508454,-2.34492 c 1.381285,-0.24593 2.405164,-0.79485 3.489372,-1.87074 1.696049,-1.68302 2.384237,-3.91109 1.907759,-6.17653 -0.63536,-3.02085 -3.552209,-5.39589 -6.626829,-5.39589 -1.4429,0 -3.381945,0.72493 -4.481941,1.67562 -0.716951,0.61963 -1.60207,1.91762 -1.936928,2.84042 -0.366071,1.00883 -0.442774,2.89095 -0.16408,4.02634 0.530411,2.16087 2.478569,4.15364 4.651187,4.75771 1.222473,0.33989 1.887042,0.36996 3.16146,0.14307 z M 18.6216,266.85497 c -1.132268,-0.19913 -2.977004,-0.89579 -3.988435,-1.50624 -2.52696,-1.52513 -4.357075,-3.91624 -5.2696496,-6.88498 -0.2979688,-0.96934 -0.3266559,-1.23713 -0.3331402,-3.10984 -0.00769,-2.22119 0.1087744,-2.89837 0.7831199,-4.55346 1.8820149,-4.61912 6.4971089,-7.53471 11.5246159,-7.28067 1.682899,0.085 2.936574,0.4105 4.48386,1.16406 3.202246,1.55955 5.398058,4.23409 6.342367,7.72511 0.379212,1.40192 0.383529,4.28976 0.0085,5.65709 -0.368453,1.34319 -0.697529,2.15198 -1.25416,3.08238 -1.590292,2.65818 -4.012621,4.55078 -6.950688,5.43066 -0.899986,0.26952 -1.334067,0.32321 -2.871306,0.3551 -0.996066,0.0207 -2.109834,-0.015 -2.475041,-0.0792 z m 4.417675,-2.39868 c 2.597425,-0.65117 4.82493,-2.41937 6.080272,-4.82653 0.682387,-1.30851 0.97997,-2.4616 1.057607,-4.09809 0.08225,-1.73363 -0.176316,-2.89993 -1.014791,-4.57745 -0.483285,-0.9669 -0.751488,-1.32382 -1.723238,-2.2933 -1.337944,-1.33482 -2.398447,-1.9848 -4.048515,-2.48132 -0.944843,-0.28432 -1.291403,-0.32659 -2.656175,-0.32401 -1.347988,0.003 -1.722952,0.0487 -2.656175,0.32698 -1.569554,0.468 -2.709914,1.15212 -3.935308,2.36086 -1.154611,1.13892 -1.877191,2.2491 -2.331118,3.58153 -0.828903,2.43312 -0.706087,4.8845 0.357509,7.13578 1.255784,2.65808 3.407977,4.45212 6.224274,5.18847 1.248826,0.32652 3.358626,0.32973 4.645658,0.007 z" id="path182" inkscape:connector-curvature="0"/>
            </g>
        </symbol>

        <symbol xmlns="http://www.w3.org/2000/svg" id="admin_sidebar_catalog" viewBox="0 0 457.245 457.245">
            <path xmlns="http://www.w3.org/2000/svg" d="M454.654,133.6l-88.463-76.605c-2.415-2.092-5.892-2.423-8.66-0.825l-18.36,10.6l-7.095-4.095l10.862-6.271  c2.542-1.468,3.995-4.284,3.716-7.207c-0.279-2.923-2.237-5.414-5.011-6.375L231.069,4.512c-2.201-0.763-4.553-0.443-6.425,0.726  c0,0-221.388,127.83-221.62,128.003c-0.985,0.732-1.802,1.714-2.344,2.901c-0.492,1.077-0.708,2.214-0.676,3.329l0.021,178.427  c0,2.678,1.429,5.153,3.748,6.493l221.094,127.75c1.161,0.671,2.457,1.006,3.752,1.006c1.294,0,2.59-0.335,3.75-1.005  l221.126-127.653c2.321-1.34,3.75-3.816,3.75-6.495V139.359C457.271,137.163,456.331,135.052,454.654,133.6z M324.17,75.43  L136.421,183.827c-2.101,1.213-3.486,3.368-3.716,5.783c-0.23,2.415,0.722,4.793,2.557,6.381l28.993,25.107l-84.872-49l36.24,12.555  c2.056,0.713,4.32,0.496,6.205-0.592L317.075,71.336L324.17,75.43z M229.404,19.81l91.818,31.811L117.295,169.358l-91.827-31.813  L229.404,19.81z M221.115,432.649L15.024,313.568l-0.02-161.317l206.128,119.008L221.115,432.649z M229.507,257.764l-76.462-66.214  L360.408,71.829l76.462,66.213L229.507,257.764z M442.244,313.663L236.115,432.659l0.018-161.4L442.244,152.26V313.663z"/>
        </symbol>

        <symbol xmlns="http://www.w3.org/2000/svg" id="admin_sidebar_sales" viewBox="0 0 350 350">
            <g xmlns="http://www.w3.org/2000/svg" id="icon" style="stroke: none; stroke-width: 1; stroke-dasharray: none; stroke-linecap: butt; stroke-linejoin: miter; stroke-miterlimit: 10; fill-rule: nonzero; opacity: 1;" transform="translate(-1.9444444444444287 -1.9444444444444287) scale(3.89 3.89)">
                <path d="M 90 45.742 c 0 -0.065 -0.011 -0.128 -0.017 -0.193 c -0.006 -0.065 -0.007 -0.131 -0.02 -0.196 c -0.014 -0.073 -0.04 -0.142 -0.062 -0.213 c -0.017 -0.054 -0.028 -0.109 -0.049 -0.162 c -0.047 -0.116 -0.106 -0.227 -0.174 -0.332 c -0.003 -0.005 -0.005 -0.011 -0.009 -0.017 c -0.001 -0.002 -0.003 -0.003 -0.004 -0.005 c -0.072 -0.108 -0.154 -0.208 -0.245 -0.3 c -0.038 -0.038 -0.081 -0.068 -0.122 -0.102 c -0.059 -0.05 -0.115 -0.103 -0.18 -0.147 c -0.053 -0.036 -0.11 -0.061 -0.166 -0.091 c -0.059 -0.032 -0.115 -0.068 -0.177 -0.094 c -0.115 -0.048 -0.235 -0.085 -0.356 -0.111 c -0.006 -0.001 -0.012 -0.004 -0.018 -0.006 l -0.001 0 c 0 0 0 0 0 0 l -9.8 -2.001 c -1.088 -0.225 -2.14 0.477 -2.36 1.56 c -0.221 1.082 0.478 2.139 1.56 2.359 l 5.07 1.035 L 51.86 67.22 l -16.631 -6.31 c -0.602 -0.228 -1.276 -0.153 -1.812 0.201 L 0.898 82.602 c -0.922 0.609 -1.175 1.851 -0.566 2.772 c 0.385 0.582 1.021 0.897 1.67 0.897 c 0.378 0 0.761 -0.107 1.101 -0.331 l 31.664 -20.927 l 16.632 6.31 c 0.6 0.228 1.275 0.153 1.811 -0.201 l 31.865 -21.059 l -1.035 5.069 c -0.221 1.083 0.477 2.139 1.56 2.36 c 0.136 0.027 0.27 0.04 0.402 0.04 c 0.931 0 1.765 -0.652 1.958 -1.6 l 2.001 -9.801 c 0.004 -0.021 0.003 -0.042 0.006 -0.063 C 89.985 45.961 89.999 45.852 90 45.742 z" style="stroke: none; stroke-width: 1; stroke-dasharray: none; stroke-linecap: butt; stroke-linejoin: miter; stroke-miterlimit: 10; fill-rule: nonzero; opacity: 1;" transform=" matrix(1 0 0 1 0 0) " stroke-linecap="round"/>
                <path d="M 23.287 57.536 c -0.537 0 -1.071 -0.215 -1.465 -0.639 c -5.454 -5.868 -8.458 -13.515 -8.458 -21.532 C 13.364 17.921 27.556 3.729 45 3.729 s 31.637 14.192 31.637 31.637 c 0 1.104 -0.896 2 -2 2 s -2 -0.896 -2 -2 C 72.637 20.127 60.24 7.729 45 7.729 c -15.239 0 -27.636 12.398 -27.636 27.637 c 0 7.003 2.624 13.683 7.388 18.809 c 0.752 0.809 0.706 2.074 -0.104 2.826 C 24.263 57.359 23.775 57.536 23.287 57.536 z" style="stroke: none; stroke-width: 1; stroke-dasharray: none; stroke-linecap: butt; stroke-linejoin: miter; stroke-miterlimit: 10; fill-rule: nonzero; opacity: 1;" transform=" matrix(1 0 0 1 0 0) " stroke-linecap="round"/>
                <path d="M 49.095 33.365 h -8.189 c -1.173 0 -2.128 -0.955 -2.128 -2.128 v -6.354 c 0 -1.173 0.955 -2.128 2.128 -2.128 h 8.189 c 1.174 0 2.128 0.955 2.128 2.128 c 0 1.104 0.896 2 2 2 c 1.104 0 2 -0.896 2 -2 c 0 -3.379 -2.749 -6.128 -6.128 -6.128 H 47 v -3.113 c 0 -1.104 -0.896 -2 -2 -2 c -1.104 0 -2 0.896 -2 2 v 3.113 h -2.095 c -3.379 0 -6.128 2.749 -6.128 6.128 v 6.354 c 0 3.379 2.749 6.128 6.128 6.128 h 8.189 c 1.174 0 2.128 0.955 2.128 2.128 v 6.354 c 0 1.174 -0.954 2.128 -2.128 2.128 h -8.189 c -1.173 0 -2.128 -0.954 -2.128 -2.128 c 0 -1.104 -0.896 -2 -2 -2 c -1.104 0 -2 0.896 -2 2 c 0 3.379 2.749 6.128 6.128 6.128 H 43 v 3.112 c 0 1.104 0.896 2 2 2 c 1.104 0 2 -0.896 2 -2 v -3.112 h 2.095 c 3.379 0 6.128 -2.749 6.128 -6.128 v -6.354 C 55.223 36.114 52.474 33.365 49.095 33.365 z" style="stroke: none; stroke-width: 1; stroke-dasharray: none; stroke-linecap: butt; stroke-linejoin: miter; stroke-miterlimit: 10; fill-rule: nonzero; opacity: 1;" transform=" matrix(1 0 0 1 0 0) " stroke-linecap="round"/>
            </g>
        </symbol>


        <symbol id="admin_sidebar_dashboard" viewBox="0 0 512 512"
            xmlns="http://www.w3.org/2000/svg">
            <path d="M336.067,208.92l-40.96,24.747c-14.507,8.533-29.867,16.213-44.373,23.04c-4.267,1.707-9.387,4.267-14.507,6.827     c-17.92,9.387-27.307,29.013-23.04,48.64c3.413,15.36,16.213,28.16,31.573,31.573c3.413,0.853,6.827,0.853,10.24,0.853     c16.213,0,30.72-9.387,38.4-23.893c1.707-4.267,4.267-9.387,6.827-14.507c7.68-14.507,14.507-29.867,23.04-44.373l24.747-40.96     c1.707-3.413,0.853-6.827-1.707-10.24C343.747,207.213,339.48,207.213,336.067,208.92z M308.76,252.44     c-9.387,15.36-17.067,30.72-23.893,46.08c-1.707,5.12-4.267,9.387-6.827,14.507c-5.12,11.093-17.067,16.213-29.013,13.653     c-9.387-1.707-17.067-9.387-18.773-18.773c-2.56-11.947,2.56-23.893,13.653-29.013c4.267-2.56,9.387-4.267,14.507-6.827     c15.36-7.68,31.573-15.36,46.08-23.893l11.093-6.827L308.76,252.44z"/>
            <path d="M492.719,207.208c-0.108-0.575-0.27-1.146-0.492-1.702c-0.223-0.558-0.507-1.069-0.837-1.537     c-12.787-30.616-31.365-58.265-54.348-81.565c-0.324-0.482-0.701-0.944-1.135-1.378s-0.896-0.811-1.378-1.135     C388.233,74.226,324.764,45.933,255,45.933c-33.418,0-65.389,6.5-94.725,18.281c-0.575,0.108-1.146,0.27-1.701,0.492     c-0.557,0.223-1.069,0.507-1.537,0.837c-30.616,12.787-58.265,31.365-81.565,54.348c-0.482,0.324-0.944,0.701-1.378,1.135     s-0.812,0.896-1.135,1.378C27.293,168.7-1,232.169-1,301.933c0,58.027,18.773,113.493,55.467,158.72     c1.707,2.56,4.267,3.413,6.827,3.413h387.413c2.56,0,5.12-0.853,6.827-3.413C492.227,415.427,511,359.96,511,301.933     C511,268.515,504.5,236.544,492.719,207.208z M445.293,447H65.56c-11.539-14.88-21.122-30.844-28.695-47.616l23.575-9.557     c4.267-1.707,5.973-6.827,4.267-11.093c-1.707-4.267-6.827-5.973-11.093-4.267l-23.11,9.369     c-8.574-23.342-13.394-48.021-14.278-73.369H75.8c5.12,0,8.533-3.413,8.533-8.533S80.92,293.4,75.8,293.4H16.237     c0.957-26.907,6.416-52.715,15.648-76.694L55.32,226.84c0.853,0.853,2.56,0.853,3.413,0.853c3.413,0,5.973-1.707,7.68-5.12     c1.707-4.267,0-9.387-4.267-11.093l-23.672-10.237c10.699-22.831,24.906-43.721,41.922-61.967l17.59,17.59     c1.707,1.707,3.413,2.56,5.973,2.56s4.267-0.853,5.973-2.56c3.413-3.413,3.413-8.533,0-11.947l-17.59-17.59     c19.117-17.828,41.131-32.581,65.244-43.438l9.52,23.482c0.853,3.413,4.267,5.12,7.68,5.12c0.853,0,1.707,0,3.413-0.853     c4.267-1.707,5.973-6.827,4.267-11.093l-9.329-23.012c23.021-8.463,47.679-13.452,73.329-14.364v59.563     c0,5.12,3.413,8.533,8.533,8.533s8.533-3.413,8.533-8.533V63.17c26.907,0.957,52.715,6.416,76.694,15.648l-10.134,23.436     c-1.707,4.267,0,9.387,4.267,11.093c0.853,0.853,2.56,0.853,3.413,0.853c3.413,0,6.827-2.56,7.68-5.12l10.237-23.672     c22.831,10.699,43.721,24.906,61.967,41.922l-17.59,17.59c-3.413,3.413-3.413,8.533,0,11.947c1.707,1.707,3.413,2.56,5.973,2.56     c1.707,0,4.267-0.853,5.973-2.56l17.59-17.59c17.828,19.117,32.581,41.131,43.438,65.244l-23.482,9.52     c-4.267,1.707-5.973,6.827-4.267,11.093c0.853,3.413,4.267,5.12,7.68,5.12c0.853,0,1.707-0.853,3.413-0.853l23.013-9.329     c8.463,23.021,13.452,47.679,14.364,73.329H434.2c-5.12,0-8.533,3.413-8.533,8.533s3.413,8.533,8.533,8.533h59.575     c-0.927,26.593-6.172,52.45-15.418,76.799l-23.677-10.239c-4.267-1.707-9.387,0-11.093,4.267c-1.707,4.267,0,9.387,4.267,11.093     l23.981,10.37C464.644,418.298,455.773,433.121,445.293,447z"/>
        </symbol>

        <symbol id="add_to_wishlist" viewBox="0 -28 512.001 512">
            <path xmlns="http://www.w3.org/2000/svg" d="m256 455.515625c-7.289062
            0-14.316406-2.640625-19.792969-7.4375-20.683593-18.085937-40.625-35.082031-58.21875-50.074219l-.089843-.078125c-51.582032-43.957031-96.125-81.917969-127.117188-119.3125-34.644531-41.804687-50.78125-81.441406-50.78125-124.742187 
            0-42.070313 14.425781-80.882813 40.617188-109.292969 26.503906-28.746094 62.871093-44.578125 102.414062-44.578125 29.554688 0 56.621094 9.34375 80.445312 27.769531 12.023438 9.300781 22.921876 20.683594 32.523438 33.960938 
            9.605469-13.277344 20.5-24.660157 32.527344-33.960938 23.824218-18.425781 50.890625-27.769531 80.445312-27.769531 39.539063 0 75.910156 15.832031 102.414063 44.578125 26.191406 28.410156 40.613281 67.222656 40.613281 109.292969 0 
            43.300781-16.132812 82.9375-50.777344 124.738281-30.992187 37.398437-75.53125 75.355469-127.105468 119.308594-17.625 15.015625-37.597657 32.039062-58.328126 50.167969-5.472656 4.789062-12.503906 7.429687-19.789062 
            7.429687zm-112.96875-425.523437c-31.066406 0-59.605469 12.398437-80.367188 34.914062-21.070312 22.855469-32.675781 54.449219-32.675781 88.964844 0 36.417968 13.535157 68.988281 43.882813 105.605468 29.332031 35.394532 72.960937 
            72.574219 123.476562 115.625l.09375.078126c17.660156 15.050781 37.679688 32.113281 58.515625 50.332031 20.960938-18.253907 41.011719-35.34375 58.707031-50.417969 50.511719-43.050781 94.136719-80.222656 123.46875-115.617188 
            30.34375-36.617187 43.878907-69.1875 43.878907-105.605468 0-34.515625-11.605469-66.109375-32.675781-88.964844-20.757813-22.515625-49.300782-34.914062-80.363282-34.914062-22.757812 0-43.652344 7.234374-62.101562 21.5-16.441406 
            12.71875-27.894532 28.796874-34.609375 40.046874-3.453125 5.785157-9.53125 9.238282-16.261719 9.238282s-12.808594-3.453125-16.261719-9.238282c-6.710937-11.25-18.164062-27.328124-34.609375-40.046874-18.449218-14.265626-39.34375-21.5-62.097656-21.5zm0 0"/>
        </symbol>
        <symbol id="added_to_wishlist" viewBox="0 0 511.626 511.627">
            <path d="M475.366,71.951c-24.175-23.606-57.575-35.404-100.215-35.404c-11.8,0-23.843,2.046-36.117,6.136
            c-12.279,4.093-23.702,9.615-34.256,16.562c-10.568,6.945-19.65,13.467-27.269,19.556c-7.61,6.091-14.845,12.564-21.696,19.414
            c-6.854-6.85-14.087-13.323-21.698-19.414c-7.616-6.089-16.702-12.607-27.268-19.556c-10.564-6.95-21.985-12.468-34.261-16.562
            c-12.275-4.089-24.316-6.136-36.116-6.136c-42.637,0-76.039,11.801-100.211,35.404C12.087,95.552,0,128.288,0,170.162
            c0,12.753,2.24,25.889,6.711,39.398c4.471,13.514,9.566,25.031,15.275,34.546c5.708,9.514,12.181,18.796,19.414,27.837
            c7.233,9.042,12.519,15.27,15.846,18.699c3.33,3.422,5.948,5.899,7.851,7.419L243.25,469.937c3.427,3.429,7.614,5.144,12.562,5.144
            s9.138-1.715,12.563-5.137l177.87-171.307c43.588-43.583,65.38-86.41,65.38-128.475C511.626,128.288,499.537,95.552,475.366,71.951
            z"/>
        </symbol>
        <symbol id="quick_view" viewBox="0 0 512.005 512.005">
            <path d="M505.749,475.587l-145.6-145.6c28.203-34.837,45.184-79.104,45.184-127.317c0-111.744-90.923-202.667-202.667-202.667    
            S0,90.925,0,202.669s90.923,202.667,202.667,202.667c48.213,0,92.48-16.981,127.317-45.184l145.6,145.6    
            c4.16,4.16,9.621,6.251,15.083,6.251s10.923-2.091,15.083-6.251C514.091,497.411,514.091,483.928,505.749,475.587z     
            M202.667,362.669c-88.235,0-160-71.765-160-160s71.765-160,160-160s160,71.765,160,160S290.901,362.669,202.667,362.669z"/>
        </symbol>
    </defs>
</svg>