<svg style="position:absolute;width:0;height:0" width="0" height="0"
    xmlns="http://www.w3.org/2000/svg"
    xmlns:xlink="http://www.w3.org/1999/xlink">
    <defs>
        <symbol id="add_to_wishlist" viewBox="0 -28 512.001 512">
            <path xmlns="http://www.w3.org/2000/svg" d="m256 455.515625c-7.289062
            0-14.316406-2.640625-19.792969-7.4375-20.683593-18.085937-40.625-35.082031-58.21875-50.074219l-.089843-.078125c-51.582032-43.957031-96.125-81.917969-127.117188-119.3125-34.644531-41.804687-50.78125-81.441406-50.78125-124.742187 
            0-42.070313 14.425781-80.882813 40.617188-109.292969 26.503906-28.746094 62.871093-44.578125 102.414062-44.578125 29.554688 0 56.621094 9.34375 80.445312 27.769531 12.023438 9.300781 22.921876 20.683594 32.523438 33.960938 
            9.605469-13.277344 20.5-24.660157 32.527344-33.960938 23.824218-18.425781 50.890625-27.769531 80.445312-27.769531 39.539063 0 75.910156 15.832031 102.414063 44.578125 26.191406 28.410156 40.613281 67.222656 40.613281 109.292969 0 
            43.300781-16.132812 82.9375-50.777344 124.738281-30.992187 37.398437-75.53125 75.355469-127.105468 119.308594-17.625 15.015625-37.597657 32.039062-58.328126 50.167969-5.472656 4.789062-12.503906 7.429687-19.789062 
            7.429687zm-112.96875-425.523437c-31.066406 0-59.605469 12.398437-80.367188 34.914062-21.070312 22.855469-32.675781 54.449219-32.675781 88.964844 0 36.417968 13.535157 68.988281 43.882813 105.605468 29.332031 35.394532 72.960937 
            72.574219 123.476562 115.625l.09375.078126c17.660156 15.050781 37.679688 32.113281 58.515625 50.332031 20.960938-18.253907 41.011719-35.34375 58.707031-50.417969 50.511719-43.050781 94.136719-80.222656 123.46875-115.617188 
            30.34375-36.617187 43.878907-69.1875 43.878907-105.605468 0-34.515625-11.605469-66.109375-32.675781-88.964844-20.757813-22.515625-49.300782-34.914062-80.363282-34.914062-22.757812 0-43.652344 7.234374-62.101562 21.5-16.441406 
            12.71875-27.894532 28.796874-34.609375 40.046874-3.453125 5.785157-9.53125 9.238282-16.261719 9.238282s-12.808594-3.453125-16.261719-9.238282c-6.710937-11.25-18.164062-27.328124-34.609375-40.046874-18.449218-14.265626-39.34375-21.5-62.097656-21.5zm0 0"/>
        </symbol>
        <symbol id="added_to_wishlist" viewBox="0 0 511.626 511.627">
            <path d="M475.366,71.951c-24.175-23.606-57.575-35.404-100.215-35.404c-11.8,0-23.843,2.046-36.117,6.136
            c-12.279,4.093-23.702,9.615-34.256,16.562c-10.568,6.945-19.65,13.467-27.269,19.556c-7.61,6.091-14.845,12.564-21.696,19.414
            c-6.854-6.85-14.087-13.323-21.698-19.414c-7.616-6.089-16.702-12.607-27.268-19.556c-10.564-6.95-21.985-12.468-34.261-16.562
            c-12.275-4.089-24.316-6.136-36.116-6.136c-42.637,0-76.039,11.801-100.211,35.404C12.087,95.552,0,128.288,0,170.162
            c0,12.753,2.24,25.889,6.711,39.398c4.471,13.514,9.566,25.031,15.275,34.546c5.708,9.514,12.181,18.796,19.414,27.837
            c7.233,9.042,12.519,15.27,15.846,18.699c3.33,3.422,5.948,5.899,7.851,7.419L243.25,469.937c3.427,3.429,7.614,5.144,12.562,5.144
            s9.138-1.715,12.563-5.137l177.87-171.307c43.588-43.583,65.38-86.41,65.38-128.475C511.626,128.288,499.537,95.552,475.366,71.951
            z"/>
        </symbol>
        <symbol id="quick_view" viewBox="0 0 512.005 512.005">
            <path d="M505.749,475.587l-145.6-145.6c28.203-34.837,45.184-79.104,45.184-127.317c0-111.744-90.923-202.667-202.667-202.667    
            S0,90.925,0,202.669s90.923,202.667,202.667,202.667c48.213,0,92.48-16.981,127.317-45.184l145.6,145.6    
            c4.16,4.16,9.621,6.251,15.083,6.251s10.923-2.091,15.083-6.251C514.091,497.411,514.091,483.928,505.749,475.587z     
            M202.667,362.669c-88.235,0-160-71.765-160-160s71.765-160,160-160s160,71.765,160,160S290.901,362.669,202.667,362.669z"/>
        </symbol>
    </defs>
</svg>